<svg xmlns="http://www.w3.org/2000/svg" width="24" height="24" fill="none"><path fill="#FF9500" fill-rule="evenodd" d="M8 6a3 3 0 0 0-3 3v8a3 3 0 0 1 3-3h8a3 3 0 0 1 3 3V9a3 3 0 0 0-3-3H8Z" clip-rule="evenodd" opacity=".75"/><path fill="#FF9500" d="M5 17a3 3 0 0 1 3-3h8a3 3 0 0 1 3 3v2a3 3 0 0 1-3 3H8a3 3 0 0 1-3-3v-2Z" opacity=".5"/><path fill="#FF9500" fill-rule="evenodd" d="M8 6a4 4 0 1 1 8 0h-2a2 2 0 1 0-4 0H8Zm-3 5.17A3.001 3.001 0 0 0 3 14v4a2 2 0 0 0 2 2h.17c-.11-.313-.17-.65-.17-1v-7.83ZM18.83 20H19a2 2 0 0 0 2-2v-4a3.001 3.001 0 0 0-2-2.83V19c0 .35-.06.687-.17 1ZM11 8a1 1 0 0 0-1 1v1a1 1 0 0 0 1 1h2a1 1 0 0 0 1-1V9a1 1 0 0 0-1-1h-2Z" clip-rule="evenodd"/></svg>