<svg xmlns="http://www.w3.org/2000/svg" width="24" height="24" fill="none"><path fill="#FF1919" fill-rule="evenodd" d="M6 17H3v2a1 1 0 0 0 1 1h1a1 1 0 0 0 1-1v-2Zm15 0h-3v2a1 1 0 0 0 1 1h1a1 1 0 0 0 1-1v-2Z" clip-rule="evenodd" opacity=".75"/><path fill="#FF1919" fill-rule="evenodd" d="M6.684 4a2 2 0 0 0-1.878 1.314l-2.1 5.753A2.994 2.994 0 0 1 5 10h14c.92 0 1.744.415 2.294 1.067l-2.1-5.753A2 2 0 0 0 17.315 4H6.685Z" clip-rule="evenodd" opacity=".5"/><path fill="#FF1919" fill-rule="evenodd" d="M1.849 9H3.5l-.726 1.988A2.992 2.992 0 0 1 5 10h14a3 3 0 0 1 3 3v3a2 2 0 0 1-2 2H4a2 2 0 0 1-2-2v-3c0-.768.289-1.47.764-2h-.415a.5.5 0 0 1-.447-.276l-.5-1A.5.5 0 0 1 1.849 9Zm20.342 0h-1.65l.73 2h.42a.5.5 0 0 0 .447-.276l.5-1A.5.5 0 0 0 22.191 9ZM7 14a2 2 0 0 0-2-2 1 1 0 0 0-1 1v.5A1.5 1.5 0 0 0 5.5 15h.9a.6.6 0 0 0 .6-.6V14Zm10 0a2 2 0 0 1 2-2 1 1 0 0 1 1 1v.5a1.5 1.5 0 0 1-1.5 1.5h-.9a.6.6 0 0 1-.6-.6V14Z" clip-rule="evenodd"/><path fill="#FF1919" fill-rule="evenodd" d="M5 12a2 2 0 0 1 2 2v.4a.6.6 0 0 1-.6.6h-.9A1.5 1.5 0 0 1 4 13.5V13a1 1 0 0 1 1-1Zm14 0a2 2 0 0 0-2 2v.4a.6.6 0 0 0 .6.6h.9a1.5 1.5 0 0 0 1.5-1.5V13a1 1 0 0 0-1-1Z" clip-rule="evenodd" opacity=".25"/></svg>