<svg xmlns="http://www.w3.org/2000/svg" width="24" height="24" fill="none"><path fill="#6226D9" fill-rule="evenodd" d="M7 18a2 2 0 0 0-2 2v2h14v-2a2 2 0 0 0-2-2H7Zm5 3a1 1 0 1 0 0-2 1 1 0 0 0 0 2Z" clip-rule="evenodd" opacity=".75"/><path fill="#6226D9" d="M13 20a1 1 0 1 1-2 0 1 1 0 0 1 2 0Z" opacity=".25"/><path fill="#6226D9" fill-rule="evenodd" d="M5 3a2 2 0 0 0-2 2v5a2 2 0 0 0 2 2h2v5h10l2-14H5Zm2 2H5v5h2V5Z" clip-rule="evenodd" opacity=".5"/><path fill="#6226D9" fill-rule="evenodd" d="m17.857 11-.143 1H12v-1h5.857Zm.429-3-.143 1H12V8h6.286Zm.428-3-.143 1H12V5h6.714Z" clip-rule="evenodd"/></svg>