<svg xmlns="http://www.w3.org/2000/svg" width="24" height="24" fill="none"><path fill="#6226D9" fill-rule="evenodd" d="M12 13.25v-2.354a2.751 2.751 0 0 0 2-2.646V7.5H9.828c-.48 0-.932.12-1.328.33v.42a2.75 2.75 0 0 0 2.5 2.739v2.136l1 .125Zm-8.04 1.92a1 1 0 0 1 1.386.274A7.991 7.991 0 0 0 12 19a7.991 7.991 0 0 0 6.653-3.556 1 1 0 0 1 1.662 1.112A9.991 9.991 0 0 1 12 21a9.991 9.991 0 0 1-8.316-4.444 1 1 0 0 1 .275-1.387Zm3.05-5.088A2.826 2.826 0 0 1 8.223 8H7.5A3.5 3.5 0 0 0 4 11.5v1a.5.5 0 0 0 .5.5h1a.5.5 0 0 0 .5-.5v-1a1.5 1.5 0 0 1 1.01-1.418Z" clip-rule="evenodd"/><path fill="#6226D9" fill-rule="evenodd" d="M20.5 5s.436-.436.494-.9C21 4.045 20.955 4 20.9 4h-3.4A3.5 3.5 0 0 0 14 7.5v.75c0 1.259-.846 2.32-2 2.646v2.354l2 .25V19h2v-5.5s1.5-1 1.5-2.5V7.5l.333.333c.11.11.193.244.242.391l.146.439a1 1 0 0 0 1.145.664l.83-.166A1 1 0 0 0 21 8.18V6c0-.5-.5-1-.5-1ZM7 10.328c0-1.082.607-2.022 1.5-2.497v.419a2.75 2.75 0 0 0 2.5 2.739v2.136L10 13l-.455 1.819a1 1 0 0 0-.022.366L10 19H8l-.48-3.839a1 1 0 0 1 .012-.32L8 12.5l-.172-.172a2.828 2.828 0 0 1-.828-2ZM19.5 7a.5.5 0 1 0 0-1 .5.5 0 0 0 0 1Z" clip-rule="evenodd" opacity=".6"/><path fill="#6226D9" d="M20 6.5a.5.5 0 1 1-1 0 .5.5 0 0 1 1 0Z"/></svg>