<svg xmlns="http://www.w3.org/2000/svg" width="24" height="24" fill="none"><path fill="#FF5319" fill-rule="evenodd" d="M22 12.5V12c0-5.523-4.477-10-10-10C6.25 2 2 6.75 2 12c0 4.75 3.75 10 10.5 10 .85 0 1.5-.65 1.5-1.5 0-.75-.25-1.125-.5-1.5s-.5-.75-.5-1.5c0-.85.65-1.5 1.5-1.5h4a3.5 3.5 0 0 0 3.5-3.5Zm-13.25-4a1.75 1.75 0 1 0 0-3.5 1.75 1.75 0 0 0 0 3.5ZM7.5 11.746a1.75 1.75 0 1 1-3.5 0 1.75 1.75 0 0 1 3.5 0Zm12.5 0a1.75 1.75 0 1 1-3.5 0 1.75 1.75 0 0 1 3.5 0ZM17 6.75a1.75 1.75 0 1 1-3.5 0 1.75 1.75 0 0 1 3.5 0Z" clip-rule="evenodd" opacity=".5"/><path fill="#FF5319" fill-rule="evenodd" d="M10.5 6.75a1.75 1.75 0 1 1-3.5 0 1.75 1.75 0 0 1 3.5 0Zm-4.75 6.746a1.75 1.75 0 1 0 0-3.5 1.75 1.75 0 0 0 0 3.5Zm12.5 0a1.75 1.75 0 1 0 0-3.5 1.75 1.75 0 0 0 0 3.5Zm-3-4.996a1.75 1.75 0 1 0 0-3.5 1.75 1.75 0 0 0 0 3.5Z" clip-rule="evenodd"/></svg>