<svg xmlns="http://www.w3.org/2000/svg" width="24" height="24" fill="none"><path fill="#FF5319" d="M6 19c4.002 0 6 1.654 6 1.654V5.65S10 4 6 4c-1.767 0-3.035.2-3.626.317A.47.47 0 0 0 2 4.784V18.75c0 .328.313.575.636.518A19.767 19.767 0 0 1 6 19.002Z"/><path fill="#FF5319" fill-rule="evenodd" d="M14 4.636c-1.333.465-2 1.014-2 1.014v15.004s2.003-1.653 6.005-1.653c1.538 0 2.695.15 3.358.267A.541.541 0 0 0 22 18.75V4.784a.469.469 0 0 0-.374-.467C21.036 4.2 19.772 4 18.006 4c-.351 0-.686.013-1.006.036V11l-1.5-1-1.5 1V4.636Z" clip-rule="evenodd" opacity=".75"/><path fill="#FF5319" fill-rule="evenodd" d="M17 4.036V11l-1.5-1-1.5 1V4.636c.775-.27 1.775-.512 3-.6Z" clip-rule="evenodd" opacity=".25"/></svg>