<svg xmlns="http://www.w3.org/2000/svg" width="24" height="24" fill="none"><path fill="#F38" fill-rule="evenodd" d="M6.577 4a.5.5 0 0 0-.495.57l1.857 13a.5.5 0 0 0 .495.43h7.132a.5.5 0 0 0 .495-.43L17.143 10H6.857l-.285-2h10.857l.49-3.43a.5.5 0 0 0-.495-.57H6.577Z" clip-rule="evenodd" opacity=".5"/><path fill="#F38" fill-rule="evenodd" d="m6.857 10-.285-2h10.857l-.286 2H6.857Z" clip-rule="evenodd" opacity=".75"/><path fill="#F38" d="M9 18h6v2.5a1.5 1.5 0 0 1-1.5 1.5h-3A1.5 1.5 0 0 1 9 20.5V18Z"/></svg>