<svg xmlns="http://www.w3.org/2000/svg" width="24" height="24" fill="none"><path fill="#FF1919" d="M2.005 16.213c.39.092.792.18 1.5.304 1.417.247 3.387.493 5.601.493h12.5a1 1 0 0 1-1 1h-11.5a34.14 34.14 0 0 1-5.773-.508c-.73-.127-.921-.209-1.328-.305v-.984Z"/><path fill="#FF1919" d="M3.333 16.502a34.14 34.14 0 0 0 5.773.508h12.5v-2c-6.244 0-11.885 1.588-18.102.507-.708-.123-1.288-.257-1.288-.257l-.207.957c.407.096.595.159 1.324.285Z" opacity=".25"/><path fill="#FF1919" fill-rule="evenodd" d="M2.211 15.264c.13-.48.395-1.005.896-1.255 0 .168.4.5 2 .5h3.262a.5.5 0 0 0 .463-.685l-.7-1.748c2.428-.954 4.834-2.006 4.975-2.567.5-2 1.5-3 2-3.5.658-.658 2.24.548 3.09 1.197.17.13.311.237.41.303.2.134.528.308.882.495.752.397 1.617.855 1.617 1.12 0 .151.074.538.165 1.015.146.763.335 1.755.335 2.37v2.504c-2.166.028-4.32.235-6.47.44-3.876.371-7.74.741-11.631.064a30.333 30.333 0 0 1-1.294-.253ZM18 14a2 2 0 1 0 0-4 2 2 0 0 0 0 4Z" clip-rule="evenodd" opacity=".75"/><path fill="#FF1919" d="M5.106 14.51c-1.6 0-2-.334-2-.5l5.028-1.93.698 1.744a.5.5 0 0 1-.464.686H5.106ZM20 12a2 2 0 1 1-4 0 2 2 0 0 1 4 0Z" opacity=".25"/></svg>