<svg xmlns="http://www.w3.org/2000/svg" width="24" height="24" fill="none"><path fill="#40BF40" fill-rule="evenodd" d="M8.444 7C6.222 7 4 9.188 4 12.25 4 16.188 6.222 21 8.889 21c.734 0 1.333-.265 1.872-.504.44-.194.84-.371 1.239-.371.4 0 .8.177 1.239.371.539.239 1.138.504 1.872.504C17.778 21 20 16.187 20 12.25 20 9.187 17.778 7 15.556 7c-1.362 0-2.056.328-2.594.583-.34.16-.618.292-.962.292s-.622-.131-.962-.292C10.5 7.328 9.806 7 8.444 7Z" clip-rule="evenodd" opacity=".75"/><path fill="#40BF40" fill-rule="evenodd" d="M15 4c-.403 0-.897.219-1.315.69A2.742 2.742 0 0 0 13 6.5v1.065l-.038.018c-.34.16-.618.292-.962.292-.345 0-.622-.131-.963-.292L11 7.565V6.5c0-1.226.474-2.334 1.19-3.139C12.897 2.565 13.902 2 15 2v2Z" clip-rule="evenodd" opacity=".5"/><path fill="#40BF40" d="M10 6C7.4 6 6 4.6 6 2c2.6 0 4 1.4 4 4Z"/></svg>