<svg xmlns="http://www.w3.org/2000/svg" width="24" height="24" fill="none"><circle cx="12" cy="12" r="10" fill="#FF9500" opacity=".75"/><path fill="#FF9500" fill-rule="evenodd" d="M4.765 5.096c2.25.247 4.36.96 6.23 2.041A8.961 8.961 0 0 0 12 3c0-.338-.019-.672-.055-1a10.047 10.047 0 0 1 2.026.194 10.95 10.95 0 0 1-1.303 6.056 16.091 16.091 0 0 1 3.082 3.082 10.95 10.95 0 0 1 6.056-1.303c.127.637.194 1.296.194 1.971v.055A9.093 9.093 0 0 0 21 12a8.96 8.96 0 0 0-4.137 1.005 15.897 15.897 0 0 1 2.04 6.23 10.041 10.041 0 0 1-1.907 1.43 13.929 13.929 0 0 0-1.8-6.544A8.98 8.98 0 0 0 12.055 22H12c-.675 0-1.334-.067-1.97-.194a10.98 10.98 0 0 1 4.055-9.36 14.08 14.08 0 0 0-2.53-2.53 10.98 10.98 0 0 1-9.36 4.055A10.047 10.047 0 0 1 2 11.945 8.98 8.98 0 0 0 9.88 8.804a13.928 13.928 0 0 0-6.543-1.8c.4-.693.88-1.333 1.43-1.908Z" clip-rule="evenodd"/></svg>