<svg xmlns="http://www.w3.org/2000/svg" width="24" height="24" fill="none"><path fill="#FF5319" fill-rule="evenodd" d="M9.5 21h5a.5.5 0 0 1-.5-.5v-5a.5.5 0 0 0-.5-.5h-3a.5.5 0 0 0-.5.5v5a.5.5 0 0 1-.5.5Z" clip-rule="evenodd" opacity=".25"/><path fill="#FF5319" d="m4 13 8-7 8 7v7.5a.5.5 0 0 1-.5.5h-5a.5.5 0 0 1-.5-.5v-5a.5.5 0 0 0-.5-.5h-3a.5.5 0 0 0-.5.5v5a.5.5 0 0 1-.5.5h-5a.5.5 0 0 1-.5-.5V13Z" opacity=".75"/><path fill="#FF5319" d="M2.327 11.377a.5.5 0 0 1 .05-.705l9.296-8.087a.5.5 0 0 1 .656 0l9.294 8.087a.5.5 0 0 1 .05.705l-.645.745a.5.5 0 0 1-.706.05l-7.994-6.938a.5.5 0 0 0-.655 0l-7.995 6.938a.5.5 0 0 1-.706-.05l-.645-.745Z"/></svg>