<svg xmlns="http://www.w3.org/2000/svg" width="24" height="24" fill="none"><path fill="#1AB2FF" fill-rule="evenodd" d="M10 2c-1.511 0-2.531.541-3.169 1.224a3.38 3.38 0 0 0-.632.962C6.089 4.44 6 4.742 6 5a1 1 0 0 0 1.996.085.802.802 0 0 1 .04-.107c.046-.108.127-.25.258-.39C8.53 4.335 9.01 4 10 4H11v1h2V4H14a1 1 0 1 0 0-2H10Z" clip-rule="evenodd"/><path fill="#1AB2FF" d="M9 6.5A1.5 1.5 0 0 1 10.5 5h3A1.5 1.5 0 0 1 15 6.5V8H9V6.5Z" opacity=".5"/><path fill="#1AB2FF" fill-rule="evenodd" d="M9 8a3 3 0 0 0-3 3v8a3 3 0 0 0 3 3h6a3 3 0 0 0 3-3v-8a3 3 0 0 0-3-3H9Zm3 10a3 3 0 1 0 0-6 3 3 0 0 0 0 6Z" clip-rule="evenodd" opacity=".25"/><path fill="#1AB2FF" d="M15 15a3 3 0 1 1-6 0 3 3 0 0 1 6 0Z" opacity=".75"/></svg>