<svg xmlns="http://www.w3.org/2000/svg" width="24" height="24" fill="none"><path fill="#FF5319" fill-rule="evenodd" d="M12 21.458a.82.82 0 0 0 .536-.197c.37-.32.833-.693 1.353-1.112C16.95 17.68 22 13.607 22 9.5 22 6.3 19.45 4 16.5 4 13.65 4 12 6.334 12 6.334v15.124Z" clip-rule="evenodd" opacity=".75"/><path fill="#FF5319" fill-rule="evenodd" d="M12 6.334S10.353 4 7.5 4C4.55 4 2 6.3 2 9.5c0 4.107 5.052 8.182 8.113 10.65.519.42.981.792 1.351 1.11a.82.82 0 0 0 .536.198V6.334Z" clip-rule="evenodd"/></svg>