<svg xmlns="http://www.w3.org/2000/svg" width="24" height="24" fill="none"><path fill="#76797F" d="M15.75 13.253c-1-1-1.246-3.253-3.75-3.253s-3.25 2.753-3.75 3.253S5 14.501 5 17.007c0 2.506 2.746 3.75 4.5 2.502 1.754-1.247 3.246-1.25 5 0 1.754 1.252 4.5 0 4.5-2.502 0-2.501-2.25-2.753-3.25-3.754Z" opacity=".5"/><path fill="#76797F" fill-rule="evenodd" d="M8.5 3c-1.25 0-2 1.25-2 2.75S7.504 10 9.5 10c1.25 0 2-1.5 2-3s-1.25-4-3-4Zm7 0c1.25 0 2 1.25 2 2.75S16.496 10 14.5 10c-1.25 0-2-1.5-2-3s1.25-4 3-4ZM22 9.692C22 8.842 21.318 8 20.181 8 18.363 8 17 10.115 17 11.385c0 1.48.905 2.115 1.817 2.115C20.363 13.5 22 11.596 22 9.692ZM3.819 8C2.682 8 2 8.843 2 9.692 2 11.596 3.637 13.5 5.183 13.5 6.095 13.5 7 12.865 7 11.385 7 10.115 5.637 8 3.819 8Z" clip-rule="evenodd"/></svg>